<?xml version="1.0" encoding="utf-8"?>
<!-- Generator: Adobe Illustrator 16.0.0, SVG Export Plug-In . SVG Version: 6.00 Build 0)  -->
<!DOCTYPE svg PUBLIC "-//W3C//DTD SVG 1.1//EN" "http://www.w3.org/Graphics/SVG/1.1/DTD/svg11.dtd">
<svg version="1.1" id="Layer_1" xmlns="http://www.w3.org/2000/svg" xmlns:xlink="http://www.w3.org/1999/xlink" x="0px" y="0px"
	 width="512px" height="512px" viewBox="0 0 512 512" enable-background="new 0 0 512 512" xml:space="preserve" fill="white">
<path d="M326.069,448.187c-0.015-0.021-0.025-0.042-0.04-0.063c-15.238-23.795-17.212-60.317-17.359-63.609v-0.267H204.452
	c0,0-1.402,38.942-17.371,63.876c-5.879,0-10.645,4.767-10.645,10.645c0,5.881,4.766,10.647,10.645,10.647h137.836
	c5.88,0,10.647-4.767,10.647-10.647C335.565,453.28,331.406,448.761,326.069,448.187z"/>
<path d="M475.64,45.743H36.36c-9.283,0-16.809,7.526-16.809,16.809v292.482c0,9.283,7.526,16.81,16.809,16.81h439.28
	c9.283,0,16.81-7.526,16.81-16.81V62.552C492.449,53.27,484.923,45.743,475.64,45.743z M468.637,311.331H43.364V69.278h425.273
	V311.331z"/>
</svg>
